<?xml version="1.0" encoding="UTF-8" standalone="no"?>
<!DOCTYPE svg PUBLIC "-//W3C//DTD SVG 1.1//EN" "http://www.w3.org/Graphics/SVG/1.1/DTD/svg11.dtd">
<svg width="100%" height="100%" viewBox="0 0 297 212" version="1.1" xmlns="http://www.w3.org/2000/svg" xmlns:xlink="http://www.w3.org/1999/xlink" xml:space="preserve" xmlns:serif="http://www.serif.com/" style="fill-rule:evenodd;clip-rule:evenodd;stroke-linejoin:round;stroke-miterlimit:2;">
    <g transform="matrix(1,0,0,1,-251.67,-194.42)">
        <g transform="matrix(1,0,0,1,-1073.06,-2227.13)">
            <g transform="matrix(0.466098,-0.665656,-0.599091,-0.419488,2125.22,4645.39)">
                <path d="M1600.82,2385.72C1600.82,2385.72 1554.67,2479.04 1554.67,2519.04C1554.67,2547.34 1575.35,2570.31 1600.82,2570.31C1626.29,2570.31 1646.97,2547.34 1646.97,2519.04C1646.97,2479.04 1600.82,2385.72 1600.82,2385.72Z" style="fill:rgb(51,102,153);"/>
            </g>
            <g transform="matrix(-0.466098,-0.665656,0.599091,-0.419488,820.9,4645.39)">
                <path d="M1600.82,2385.72C1600.82,2385.72 1554.67,2479.04 1554.67,2519.04C1554.67,2547.34 1575.35,2570.31 1600.82,2570.31C1626.29,2570.31 1646.97,2547.34 1646.97,2519.04C1646.97,2479.04 1600.82,2385.72 1600.82,2385.72Z" style="fill:rgb(51,102,153);"/>
            </g>
            <g transform="matrix(1,0,0,1,-3,0)">
                <g transform="matrix(-0.877626,-2.74012e-16,2.42164e-16,-0.783982,2881.13,4436.63)">
                    <path d="M1600.82,2385.72C1600.82,2385.72 1554.67,2478.78 1554.67,2518.65C1554.67,2547.16 1575.35,2570.31 1600.82,2570.31C1626.29,2570.31 1646.97,2547.16 1646.97,2518.65C1646.97,2478.78 1600.82,2385.72 1600.82,2385.72Z" style="fill:rgb(51,102,153);"/>
                </g>
                <g transform="matrix(1,0,0,1,-3.70464,0.454083)">
                    <circle cx="1479.92" cy="2605.76" r="26.49" style="fill:rgb(51,102,153);"/>
                </g>
            </g>
        </g>
    </g>
</svg>
