<svg width="100%" height="100%" viewBox="0 0 1477 417" version="1.1" xmlns="http://www.w3.org/2000/svg" xmlns:xlink="http://www.w3.org/1999/xlink" xml:space="preserve" xmlns:serif="http://www.serif.com/" style="fill-rule:evenodd;clip-rule:evenodd;stroke-linejoin:round;stroke-miterlimit:2;">
    <g transform="matrix(1,0,0,1,-301.958,-2421.55)">
        <g>
            <g transform="matrix(1,0,0,1,916.6,2573.04)">
                <text x="0px" y="202.4px" style="font-family:'KohinoorDevanagari-Light', 'Kohinoor Devanagari';font-weight:300;font-size:266.667px;fill:rgb(51,102,153);">l</text>
            </g>
            <g>
                <g transform="matrix(1,0,0,1,-380.413,2186.24)">
                    <path d="M682.371,385.452L697.411,385.452L697.411,485.452L697.912,485.452C700.92,478.696 705.934,472.874 712.952,467.985C719.971,463.096 728.16,460.652 737.518,460.652C746.542,460.652 753.895,462.163 759.576,465.185C765.258,468.208 769.728,472.163 772.987,477.052C776.246,481.941 778.502,487.585 779.755,493.985C781.008,500.385 781.635,506.963 781.635,513.719L781.635,587.052L766.595,587.052L766.595,514.519C766.595,509.541 766.177,504.696 765.342,499.985C764.506,495.274 763.044,491.052 760.955,487.319C758.866,483.585 755.942,480.608 752.182,478.385C748.422,476.163 743.534,475.052 737.518,475.052C732.003,475.052 726.781,476.074 721.851,478.119C716.921,480.163 712.66,483.274 709.067,487.452C705.474,491.63 702.633,496.874 700.544,503.185C698.456,509.496 697.411,516.919 697.411,525.452L697.411,587.052L682.371,587.052L682.371,385.452Z" style="fill:rgb(51,102,153);fill-rule:nonzero;"/>
                    <path d="M919.752,552.385C919.752,554.696 919.836,557.496 920.003,560.785C920.17,564.074 920.296,567.408 920.379,570.785C920.463,574.163 920.588,577.319 920.755,580.252C920.922,583.185 921.006,585.452 921.006,587.052L905.966,587.052C905.799,582.43 905.673,577.985 905.59,573.719C905.506,569.452 905.297,566.696 904.963,565.452L904.211,565.452C901.203,572.208 896.19,578.03 889.171,582.919C882.152,587.808 873.964,590.252 864.606,590.252C855.582,590.252 848.187,588.741 842.422,585.719C836.656,582.696 832.144,578.741 828.886,573.852C825.627,568.963 823.413,563.319 822.243,556.919C821.073,550.519 820.488,543.941 820.488,537.185L820.488,463.852L835.528,463.852L835.528,536.385C835.528,541.363 835.946,546.208 836.782,550.919C837.617,555.63 839.08,559.852 841.168,563.585C843.257,567.319 846.182,570.296 849.942,572.519C853.702,574.741 858.59,575.852 864.606,575.852C870.12,575.852 875.343,574.83 880.272,572.785C885.202,570.741 889.464,567.63 893.056,563.452C896.649,559.274 899.49,554.03 901.579,547.719C903.668,541.408 904.712,533.985 904.712,525.452L904.712,463.852L919.752,463.852L919.752,552.385Z" style="fill:rgb(51,102,153);fill-rule:nonzero;"/>
                    <path d="M961.112,498.519C961.112,496.208 961.029,493.408 960.862,490.119C960.695,486.83 960.569,483.496 960.486,480.119C960.402,476.741 960.277,473.585 960.11,470.652C959.943,467.719 959.859,465.452 959.859,463.852L974.899,463.852C975.066,468.474 975.192,472.919 975.275,477.185C975.359,481.452 975.568,484.208 975.902,485.452L976.654,485.452C979.662,478.696 984.675,472.874 991.694,467.985C998.712,463.096 1006.9,460.652 1016.26,460.652C1023.95,460.652 1030.96,462.741 1037.32,466.919C1043.66,471.096 1048.26,477.896 1051.1,487.319C1054.78,478.074 1060.25,471.319 1067.52,467.052C1074.79,462.785 1082.43,460.652 1090.46,460.652C1099.48,460.652 1106.83,462.163 1112.52,465.185C1118.2,468.208 1122.67,472.163 1125.93,477.052C1129.18,481.941 1131.44,487.585 1132.69,493.985C1133.95,500.385 1134.57,506.963 1134.57,513.719L1134.57,587.052L1119.53,587.052L1119.53,514.519C1119.53,509.541 1119.12,504.696 1118.28,499.985C1117.44,495.274 1115.98,491.052 1113.89,487.319C1111.81,483.585 1108.88,480.608 1105.12,478.385C1101.36,476.163 1096.47,475.052 1090.46,475.052C1083.44,475.052 1077.67,476.43 1073.16,479.185C1068.65,481.941 1065.1,485.452 1062.51,489.719C1059.92,493.985 1058.08,498.608 1056.99,503.585C1055.91,508.563 1055.36,513.274 1055.36,517.719L1055.36,587.052L1040.32,587.052L1040.32,512.919C1040.32,501.541 1038.36,492.385 1034.43,485.452C1030.51,478.519 1024.45,475.052 1016.26,475.052C1010.74,475.052 1005.52,476.074 1000.59,478.119C995.663,480.163 991.401,483.274 987.808,487.452C984.216,491.63 981.375,496.874 979.286,503.185C977.197,509.496 976.152,516.919 976.152,525.452L976.152,587.052L961.112,587.052L961.112,498.519Z" style="fill:rgb(51,102,153);fill-rule:nonzero;"/>
                    <path d="M1171.42,385.452L1186.46,385.452L1186.46,485.452L1186.96,485.452C1189.3,481.185 1192.23,477.496 1195.74,474.385C1199.25,471.274 1203.05,468.696 1207.14,466.652C1211.24,464.608 1215.54,463.096 1220.05,462.119C1224.56,461.141 1228.99,460.652 1233.34,460.652C1242.19,460.652 1250.34,462.252 1257.78,465.452C1265.21,468.652 1271.65,473.141 1277.08,478.919C1282.51,484.696 1286.73,491.541 1289.74,499.452C1292.74,507.363 1294.25,516.03 1294.25,525.452C1294.25,534.874 1292.74,543.541 1289.74,551.452C1286.73,559.363 1282.51,566.208 1277.08,571.985C1271.65,577.763 1265.21,582.252 1257.78,585.452C1250.34,588.652 1242.19,590.252 1233.34,590.252C1228.99,590.252 1224.56,589.763 1220.05,588.785C1215.54,587.808 1211.24,586.296 1207.14,584.252C1203.05,582.208 1199.25,579.63 1195.74,576.519C1192.23,573.408 1189.3,569.719 1186.96,565.452L1186.46,565.452L1186.46,587.052L1171.42,587.052L1171.42,385.452ZM1184.96,525.452C1184.96,532.385 1186.21,538.919 1188.72,545.052C1191.22,551.185 1194.65,556.519 1199,561.052C1203.34,565.585 1208.44,569.185 1214.29,571.852C1220.13,574.519 1226.49,575.852 1233.34,575.852C1240.36,575.852 1246.7,574.519 1252.39,571.852C1258.07,569.185 1262.91,565.585 1266.93,561.052C1270.94,556.519 1273.99,551.185 1276.08,545.052C1278.16,538.919 1279.21,532.385 1279.21,525.452C1279.21,518.519 1278.16,511.985 1276.08,505.852C1273.99,499.719 1270.94,494.385 1266.93,489.852C1262.91,485.319 1258.07,481.719 1252.39,479.052C1246.7,476.385 1240.36,475.052 1233.34,475.052C1226.49,475.052 1220.13,476.385 1214.29,479.052C1208.44,481.719 1203.34,485.319 1199,489.852C1194.65,494.385 1191.22,499.719 1188.72,505.852C1186.21,511.985 1184.96,518.519 1184.96,525.452Z" style="fill:rgb(51,102,153);fill-rule:nonzero;"/>
                    <path d="M1490.27,563.852C1484.42,573.274 1477.19,580.03 1468.59,584.119C1459.98,588.208 1450.5,590.252 1440.14,590.252C1431.28,590.252 1423.26,588.652 1416.07,585.452C1408.89,582.252 1402.7,577.763 1397.52,571.985C1392.34,566.208 1388.37,559.363 1385.62,551.452C1382.86,543.541 1381.48,534.785 1381.48,525.185C1381.48,515.941 1382.9,507.408 1385.74,499.585C1388.58,491.763 1392.59,484.963 1397.77,479.185C1402.95,473.408 1409.05,468.874 1416.07,465.585C1423.09,462.296 1430.86,460.652 1439.38,460.652C1448.24,460.652 1456.05,462.296 1462.82,465.585C1469.59,468.874 1475.27,473.23 1479.87,478.652C1484.46,484.074 1487.93,490.252 1490.27,497.185C1492.61,504.119 1493.78,511.141 1493.78,518.252L1493.78,529.452L1396.52,529.452C1396.52,532.83 1397.15,537.141 1398.4,542.385C1399.65,547.63 1401.95,552.741 1405.29,557.719C1408.64,562.696 1413.11,566.963 1418.7,570.519C1424.3,574.074 1431.53,575.852 1440.39,575.852C1448.07,575.852 1455.51,573.896 1462.7,569.985C1469.88,566.074 1475.4,560.741 1479.24,553.985L1490.27,563.852ZM1478.74,515.052C1478.74,509.541 1477.69,504.385 1475.61,499.585C1473.52,494.785 1470.68,490.563 1467.08,486.919C1463.49,483.274 1459.23,480.385 1454.3,478.252C1449.37,476.119 1444.15,475.052 1438.63,475.052C1430.44,475.052 1423.63,476.83 1418.2,480.385C1412.77,483.941 1408.47,488.03 1405.29,492.652C1402.12,497.274 1399.86,501.763 1398.53,506.119C1397.19,510.474 1396.52,513.452 1396.52,515.052L1478.74,515.052Z" style="fill:rgb(51,102,153);fill-rule:nonzero;"/>
                    <path d="M1657.45,587.052L1620.65,587.052L1620.65,569.985L1620.12,569.985C1618.52,572.296 1616.43,574.652 1613.85,577.052C1611.27,579.452 1608.25,581.63 1604.78,583.585C1601.32,585.541 1597.49,587.141 1593.32,588.385C1589.14,589.63 1584.83,590.252 1580.38,590.252C1570.78,590.252 1562.07,588.608 1554.25,585.319C1546.43,582.03 1539.72,577.408 1534.12,571.452C1528.52,565.496 1524.2,558.43 1521.18,550.252C1518.16,542.074 1516.65,533.096 1516.65,523.319C1516.65,514.252 1518.03,505.585 1520.78,497.319C1523.54,489.052 1527.45,481.719 1532.52,475.319C1537.58,468.919 1543.76,463.808 1551.05,459.985C1558.34,456.163 1566.6,454.252 1575.85,454.252C1584.2,454.252 1591.98,455.541 1599.18,458.119C1606.38,460.696 1612.29,465.096 1616.91,471.319L1617.45,471.319L1617.45,385.452L1657.45,385.452L1657.45,587.052ZM1620.65,522.252C1620.65,512.474 1617.85,504.563 1612.25,498.519C1606.65,492.474 1598.78,489.452 1588.65,489.452C1578.52,489.452 1570.65,492.474 1565.05,498.519C1559.45,504.563 1556.65,512.474 1556.65,522.252C1556.65,532.03 1559.45,539.941 1565.05,545.985C1570.65,552.03 1578.52,555.052 1588.65,555.052C1598.78,555.052 1606.65,552.03 1612.25,545.985C1617.85,539.941 1620.65,532.03 1620.65,522.252Z" style="fill:rgb(64,64,64);fill-rule:nonzero;stroke:rgb(55,65,81);stroke-width:1px;"/>
                    <path d="M1770.78,570.785L1770.25,570.785C1765.8,577.719 1759.89,582.696 1752.52,585.719C1745.14,588.741 1737.36,590.252 1729.18,590.252C1723.14,590.252 1717.32,589.408 1711.72,587.719C1706.12,586.03 1701.18,583.496 1696.91,580.119C1692.65,576.741 1689.27,572.563 1686.78,567.585C1684.29,562.608 1683.05,556.83 1683.05,550.252C1683.05,542.785 1684.43,536.474 1687.18,531.319C1689.94,526.163 1693.67,521.896 1698.38,518.519C1703.09,515.141 1708.47,512.519 1714.52,510.652C1720.56,508.785 1726.83,507.408 1733.32,506.519C1739.8,505.63 1746.29,505.096 1752.78,504.919C1759.27,504.741 1765.27,504.652 1770.78,504.652C1770.78,497.541 1768.25,491.896 1763.18,487.719C1758.12,483.541 1752.12,481.452 1745.18,481.452C1738.6,481.452 1732.6,482.83 1727.18,485.585C1721.76,488.341 1716.91,492.119 1712.65,496.919L1691.32,475.052C1698.78,468.119 1707.49,462.919 1717.45,459.452C1727.4,455.985 1737.72,454.252 1748.38,454.252C1760.12,454.252 1769.76,455.719 1777.32,458.652C1784.87,461.585 1790.91,465.896 1795.45,471.585C1799.98,477.274 1803.14,484.252 1804.91,492.519C1806.69,500.785 1807.58,510.341 1807.58,521.185L1807.58,587.052L1770.78,587.052L1770.78,570.785ZM1760.91,530.252C1757.89,530.252 1754.12,530.385 1749.58,530.652C1745.05,530.919 1740.69,531.674 1736.52,532.919C1732.34,534.163 1728.78,536.03 1725.85,538.519C1722.91,541.008 1721.45,544.474 1721.45,548.919C1721.45,553.719 1723.49,557.274 1727.58,559.585C1731.67,561.896 1735.94,563.052 1740.38,563.052C1744.29,563.052 1748.07,562.519 1751.72,561.452C1755.36,560.385 1758.6,558.874 1761.45,556.919C1764.29,554.963 1766.56,552.474 1768.25,549.452C1769.94,546.43 1770.78,542.874 1770.78,538.785L1770.78,530.252L1760.91,530.252Z" style="fill:rgb(64,64,64);fill-rule:nonzero;stroke:rgb(55,65,81);stroke-width:1px;"/>
                    <rect x="1833.18" y="457.452" width="40" height="129.6" style="fill:rgb(64,64,64);fill-rule:nonzero;stroke:rgb(55,65,81);stroke-width:1px;"/>
                    <path d="M1975.32,495.585C1969.45,488.296 1961.72,484.652 1952.12,484.652C1948.74,484.652 1945.45,485.452 1942.25,487.052C1939.05,488.652 1937.45,491.408 1937.45,495.319C1937.45,498.519 1939.09,500.874 1942.38,502.385C1945.67,503.896 1949.85,505.23 1954.91,506.385C1959.98,507.541 1965.4,508.785 1971.18,510.119C1976.96,511.452 1982.38,513.541 1987.45,516.385C1992.52,519.23 1996.69,523.096 1999.98,527.985C2003.27,532.874 2004.91,539.408 2004.91,547.585C2004.91,555.941 2003.09,562.83 1999.45,568.252C1995.8,573.674 1991.14,578.03 1985.45,581.319C1979.76,584.608 1973.36,586.919 1966.25,588.252C1959.14,589.585 1952.12,590.252 1945.18,590.252C1936.12,590.252 1926.96,588.963 1917.72,586.385C1908.47,583.808 1900.65,579.23 1894.25,572.652L1918.52,545.719C1922.25,550.341 1926.38,553.852 1930.91,556.252C1935.45,558.652 1940.74,559.852 1946.78,559.852C1951.4,559.852 1955.58,559.185 1959.32,557.852C1963.05,556.519 1964.91,554.074 1964.91,550.519C1964.91,547.141 1963.27,544.608 1959.98,542.919C1956.69,541.23 1952.52,539.808 1947.45,538.652C1942.38,537.496 1936.96,536.252 1931.18,534.919C1925.4,533.585 1919.98,531.585 1914.91,528.919C1909.85,526.252 1905.67,522.474 1902.38,517.585C1899.09,512.696 1897.45,506.163 1897.45,497.985C1897.45,490.341 1899,483.763 1902.12,478.252C1905.23,472.741 1909.32,468.208 1914.38,464.652C1919.45,461.096 1925.27,458.474 1931.85,456.785C1938.43,455.096 1945.09,454.252 1951.85,454.252C1960.38,454.252 1969,455.496 1977.72,457.985C1986.43,460.474 1993.8,464.919 1999.85,471.319L1975.32,495.585Z" style="fill:rgb(64,64,64);fill-rule:nonzero;stroke:rgb(55,65,81);stroke-width:1px;"/>
                    <path d="M2100.12,608.119C2097.45,615.052 2094.87,621.185 2092.38,626.519C2089.89,631.852 2086.74,636.341 2082.91,639.985C2079.09,643.63 2074.25,646.385 2068.38,648.252C2062.51,650.119 2054.78,651.052 2045.18,651.052C2034.87,651.052 2024.91,649.452 2015.32,646.252L2020.65,613.452C2026.69,616.119 2032.91,617.452 2039.32,617.452C2043.76,617.452 2047.4,616.963 2050.25,615.985C2053.09,615.008 2055.45,613.585 2057.32,611.719C2059.18,609.852 2060.74,607.585 2061.98,604.919C2063.23,602.252 2064.56,599.141 2065.98,595.585L2068.91,588.119L2012.12,457.452L2055.32,457.452L2088.65,543.052L2089.18,543.052L2117.72,457.452L2158.78,457.452L2100.12,608.119Z" style="fill:rgb(64,64,64);fill-rule:nonzero;stroke:rgb(55,65,81);stroke-width:1px;"/>
                </g>
                <g>
                    <g transform="matrix(0.466098,-0.665656,-0.599091,-0.419488,2125.22,4645.39)">
                        <path d="M1600.82,2385.72C1600.82,2385.72 1554.67,2479.04 1554.67,2519.04C1554.67,2547.34 1575.35,2570.31 1600.82,2570.31C1626.29,2570.31 1646.97,2547.34 1646.97,2519.04C1646.97,2479.04 1600.82,2385.72 1600.82,2385.72Z" style="fill:rgb(51,102,153);"/>
                    </g>
                    <g transform="matrix(-0.466098,-0.665656,0.599091,-0.419488,820.9,4645.39)">
                        <path d="M1600.82,2385.72C1600.82,2385.72 1554.67,2479.04 1554.67,2519.04C1554.67,2547.34 1575.35,2570.31 1600.82,2570.31C1626.29,2570.31 1646.97,2547.34 1646.97,2519.04C1646.97,2479.04 1600.82,2385.72 1600.82,2385.72Z" style="fill:rgb(51,102,153);"/>
                    </g>
                    <g transform="matrix(1,0,0,1,-3,0)">
                        <g transform="matrix(-0.877626,-2.74012e-16,2.42164e-16,-0.783982,2881.13,4436.63)">
                            <path d="M1600.82,2385.72C1600.82,2385.72 1554.67,2478.78 1554.67,2518.65C1554.67,2547.16 1575.35,2570.31 1600.82,2570.31C1626.29,2570.31 1646.97,2547.16 1646.97,2518.65C1646.97,2478.78 1600.82,2385.72 1600.82,2385.72Z" style="fill:rgb(51,102,153);"/>
                        </g>
                        <g transform="matrix(1,0,0,1,-3.70464,0.454083)">
                            <circle cx="1479.92" cy="2605.76" r="26.49" style="fill:rgb(51,102,153);"/>
                        </g>
                    </g>
                </g>
            </g>
        </g>
    </g>
</svg>
